<svg width="384" height="384" viewBox="0 0 384 384" fill="none" xmlns="http://www.w3.org/2000/svg">
<rect width="384" height="384" fill="#262E31"/>
<path d="M98.75 300C96.4767 300 94.6167 299.38 93.17 298.14C91.7233 296.693 91 294.833 91 292.56V90.75C91 88.4767 91.7233 86.6167 93.17 85.17C94.6167 83.7233 96.4767 83 98.75 83H123.24C127.58 83 130.68 84.9633 132.54 88.89L192.37 200.49L252.82 88.89C254.887 84.9633 257.987 83 262.12 83H286.3C288.573 83 290.433 83.7233 291.88 85.17C293.327 86.6167 294.05 88.4767 294.05 90.75V292.56C294.05 294.833 293.327 296.693 291.88 298.14C290.433 299.38 288.573 300 286.3 300H260.26C258.193 300 256.437 299.277 254.99 297.83C253.543 296.383 252.82 294.627 252.82 292.56V158.33L209.42 241.1C206.733 245.647 203.22 247.92 198.88 247.92H186.17C181.83 247.92 178.317 245.647 175.63 241.1L132.23 158.33V292.56C132.23 294.627 131.507 296.383 130.06 297.83C128.82 299.277 127.063 300 124.79 300H98.75Z" fill="#BEAB3F"/>
</svg>